inDegrees=no
num_controls=7
num_derivatives=13
num_iterations=85
num_multipliers=7
num_parameters=0
num_slacks=7
num_states=26
objective=0.403909
objective_accelerations=0.064831
objective_balance=0.002960
objective_effort=0.028270
objective_height=0.301979
objective_ligament=0.005868
solver_duration=1265.269770
status=Solve_Succeeded
success=true
DataType=double
version=3
OpenSimVersion=4.5
endheader
time	/jointset/ground_pelvis/pelvis_tilt/value	/jointset/ground_pelvis/pelvis_tx/value	/jointset/ground_pelvis/pelvis_ty/value	/jointset/hip_l/hip_flexion_l/value	/jointset/hip_l/hip_adduction_l/value	/jointset/hip_l/hip_rotation_l/value	/jointset/back/lumbar_extension/value	/jointset/patellofemoral_l/patellar_flexion_l/value	/jointset/knee_l/knee_flexion_l/value	/jointset/knee_l/knee_adduction_l/value	/jointset/knee_l/knee_rotation_l/value	/jointset/ankle_l/ankle_angle_l/value	/jointset/subtalar_l/subtalar_angle_l/value	/jointset/ground_pelvis/pelvis_tilt/speed	/jointset/ground_pelvis/pelvis_tx/speed	/jointset/ground_pelvis/pelvis_ty/speed	/jointset/hip_l/hip_flexion_l/speed	/jointset/hip_l/hip_adduction_l/speed	/jointset/hip_l/hip_rotation_l/speed	/jointset/back/lumbar_extension/speed	/jointset/patellofemoral_l/patellar_flexion_l/speed	/jointset/knee_l/knee_flexion_l/speed	/jointset/knee_l/knee_adduction_l/speed	/jointset/knee_l/knee_rotation_l/speed	/jointset/ankle_l/ankle_angle_l/speed	/jointset/subtalar_l/subtalar_angle_l/speed	/forceset/tau_hip_flexion_l	/forceset/tau_hip_adduction_l	/forceset/tau_hip_rotation_l	/forceset/tau_knee_flexion_l	/forceset/tau_ankle_angle_l	/forceset/tau_subtalar_angle_l	/forceset/tau_lumbar_extension	lambda_cid13_p0	lambda_cid13_p1	lambda_cid13_p2	lambda_cid13_p3	lambda_cid13_p4	lambda_cid13_p5	lambda_cid14_p0	/jointset/ground_pelvis/pelvis_tilt/accel	/jointset/ground_pelvis/pelvis_tx/accel	/jointset/ground_pelvis/pelvis_ty/accel	/jointset/hip_l/hip_flexion_l/accel	/jointset/hip_l/hip_adduction_l/accel	/jointset/hip_l/hip_rotation_l/accel	/jointset/back/lumbar_extension/accel	/jointset/patellofemoral_l/patellar_flexion_l/accel	/jointset/knee_l/knee_flexion_l/accel	/jointset/knee_l/knee_adduction_l/accel	/jointset/knee_l/knee_rotation_l/accel	/jointset/ankle_l/ankle_angle_l/accel	/jointset/subtalar_l/subtalar_angle_l/accel	gamma_cid13_p0	gamma_cid13_p1	gamma_cid13_p2	gamma_cid13_p3	gamma_cid13_p4	gamma_cid13_p5	gamma_cid14_p0
1.5	-0.3196321883362601	-0.0180318234910051	0.6663038868473513	1.350518756182171	-0.4545545184386774	-0.1401075033816331	-0.2439606740822967	1.231939426087815	1.231939426088366	0.009464352859428938	-0.1680454676341797	0.314251774638455	0.07088159030360111	0.4028242448567632	0.1602866496323926	0.9282793027406376	-2.991746221758182	0.2155775013085089	-0.8498280753801214	0.2448328255213979	-3.00491087139259	-3.004910871392659	-0.5422291857756331	0.08879358955751283	-0.7385793998014625	-0.2019020288186514	-0.1704744977522124	0.01642391926717172	-0.01445051481426166	-0.3004168397404806	0.03863942482314132	0.03875161783866241	0.1736857016923817	-18.94522142356346	-14.22838671158404	2.750012591305031	-13.99177323324411	-527.5341843866987	-60.29209987883868	-5.446976741352558	1.680036662686499	1.25176839545614	-0.552699330677131	-2.430989293542171	0.9045328575765788	-0.3940972021555111	1.981785717825177	-2.912900668486618	-2.912900668486713	0.09951674109958281	0.7919786228984982	-1.996289262134028	0.06477000072590336	7.955742551803154e-07	4.957241899863665e-06	1.462105719734475e-06	1.304623145439714e-06	5.785622377653343e-07	2.455788520973984e-06	6.022107521317182e-07
1.51	-0.3155202769746458	-0.0163665310886715	0.6755566173300699	1.320482855024362	-0.4523554447335666	-0.1486284882861056	-0.2414137526258868	1.201748269619399	1.201748269619798	0.004047922703058508	-0.1671227928449245	0.3067669176689144	0.068863594254361	0.4194573873429724	0.1727475479209401	0.9220182156259871	-3.015006861108393	0.2242229849683232	-0.854304410933833	0.2645749290291105	-3.032910964585045	-3.032910964585152	-0.5409729818934861	0.09572943656514578	-0.7582505713456531	-0.2016190965902497	-0.1650882700539375	0.016364243296277	-0.01410901394234292	-0.2920654183206687	0.03805899763546269	0.03876791535675325	0.1688733399730296	-18.68448639526811	-14.47833117176853	3.0151274041697	-13.8590334209447	-519.802765756814	-60.28678440181372	-6.666080685781091	1.639841466104262	1.239855744935444	-0.6999701416708237	-2.209544932560206	0.8419609559083812	-0.4641803159725308	1.973942157518262	-2.682279613961644	-2.682279613967297	0.1520125130303081	0.6428714084893297	-1.930985636339522	0.0208439796422516	8.350118569595291e-07	4.993253648490101e-06	1.118055999969401e-06	1.260771950280301e-06	6.256674516617239e-07	2.256712888334795e-06	6.490147134849653e-07
1.52	-0.3112450565032653	-0.01457730866357616	0.6847393055936796	1.290227158737691	-0.4500704352247122	-0.1571921922629132	-0.2386687062363448	1.171289369025192	1.171289369025438	-0.001353277354249247	-0.1661310628518339	0.2990896580767766	0.06685058535655397	0.4354860668098245	0.1850726541847425	0.9142708589188735	-3.035705247530593	0.2327646620571162	-0.8583718898472859	0.2844578121477817	-3.058459696550967	-3.058459696551111	-0.5391831659610162	0.1026046303245238	-0.7770599243209616	-0.2009045985320496	-0.1597020423556627	0.01630456732538854	-0.01376751307046931	-0.2837139969008576	0.03747857044778643	0.03878421287485539	0.1640609782536756	-18.42310674049262	-14.73748898470468	3.292103179279945	-13.8020015835559	-512.073669467717	-60.33311853532695	-7.99548085984994	1.559144058815096	1.224609990507135	-0.8499532491697162	-1.918538707940086	0.8837715433723055	-0.312325874103772	2.009941640016932	-2.422628423179988	-2.422628423179842	0.2062391511641415	0.7798479732474972	-1.823925548357619	0.1510831666855644	8.337263576122539e-07	4.809546451415905e-06	7.59333146837995e-07	1.167932729286005e-06	6.488743374710816e-07	2.000184885804845e-06	6.613166294857071e-07
1.53	-0.3068126912210947	-0.01266552345625719	0.6938371972966695	1.259777171159735	-0.4477003591563846	-0.165793430081288	-0.2357244478617133	1.140587527721057	1.140587527721367	-0.006734709740360872	-0.1650700706313027	0.2912291190026652	0.06484744203613435	0.4508641183596225	0.1972585428845736	0.9050688123496923	-3.053861004054713	0.2412232937640966	-0.8617974221495627	0.304394154927541	-3.081471722612025	-3.081471722612216	-0.5370462295172946	0.109573933718601	-0.7948667625502656	-0.199643813341791	-0.1537235721066142	0.01596579608042776	-0.01346389196478476	-0.2763495466972091	0.03817356447437176	0.03843039021918307	0.1587797952872612	-17.78044848055322	-14.86298240683044	3.502446995113737	-13.97023676755123	-504.4853334509035	-60.11203160328017	-9.383995833806029	1.508696232405793	1.211890745925211	-0.9910016563203463	-1.699411305577046	0.8224874988145334	-0.3454143575109589	1.985524419304999	-2.175088232089922	-2.175088232097019	0.2266359578462179	0.652576039861164	-1.731624431530148	0.1249168227020373	7.891725633180847e-07	4.39238787453479e-06	3.85020089504863e-07	1.023043730842145e-06	6.466892496879682e-07	1.682613740265962e-06	6.369601222994127e-07
1.54	-0.3022302333175564	-0.01063261687469908	0.7028359342748622	1.229158562580352	-0.445246581068096	-0.1744264727125292	-0.2325808172948141	1.109668646449405	1.109668646449783	-0.01209292974866259	-0.1639399644733575	0.2831959992519983	0.06285917469311859	0.4655045910831635	0.2092969290325688	0.8944399139594016	-3.069429447815994	0.2495050660492204	-0.864732852420692	0.3243322506012832	-3.101867690053931	-3.10186769005417	-0.5345406903987702	0.1164274178076114	-0.8115760596321036	-0.1979294030512909	-0.1477451018575637	0.0156270248354727	-0.01316027085910011	-0.2689850964935594	0.03886855850095903	0.03807656756352023	0.1534986123208469	-17.13800626293984	-14.98777706053052	3.711922728274076	-14.18903086258082	-496.9130996371255	-59.92890187021176	-10.77409182967834	1.411628293563688	1.195109480139973	-1.135323613391584	-1.40107615537221	0.848399659001001	-0.2143054678742785	2.010292218813542	-1.899416699349727	-1.899416699349726	0.2799596861247446	0.7566841122341417	-1.604417318864407	0.2418081867338518	7.883053396512075e-07	4.177890832555313e-06	-8.9477783829982e-09	9.169730572456259e-07	6.918195724641788e-07	1.47853740837876e-06	6.420573885091246e-07
1.55	-0.2975050924680023	-0.008480357394278786	0.7117213490163781	1.198397382653051	-0.4427108403507601	-0.1830858907076218	-0.2292382716833016	1.078559009254651	1.078559009254909	-0.01742488301257329	-0.1627416474037898	0.2750011567522443	0.06089025180293464	0.4793893064966385	0.2210999844287936	0.8824103682464438	-3.082326632378509	0.2576232468069543	-0.867060540017469	0.3441397483138001	-3.11958858262143	-3.119588582621585	-0.5317779579083721	0.1232305224941317	-0.827210215879648	-0.1957699060553354	-0.1419179769732281	0.01531428763063041	-0.01292763954211831	-0.2611208269858703	0.03832499740824959	0.03771724250853024	0.1482072350664762	-16.91010238464103	-15.03722480967853	3.9089594949858	-13.84037702540033	-489.4259883877474	-59.74417255147193	-12.1718672097642	1.35674824872645	1.164820485387353	-1.271500599987421	-1.162051556203142	0.7903019563644006	-0.2278653949786536	1.960410039357599	-1.637891149251791	-1.637891149239179	0.2858948417027976	0.6412031700503729	-1.515317217903668	0.215206926158012	8.377726430114248e-07	4.196895124266842e-06	-4.255614062578286e-07	8.556278448862592e-07	7.914654769717814e-07	1.405226840046748e-06	6.81090524066407e-07
1.56	-0.2926451334476149	-0.006211683976691522	0.7204795221908166	1.167521628490223	-0.4400945628914054	-0.1917657585765615	-0.2256987647962864	1.047286270011461	1.0472862700116	-0.02272691598934396	-0.1614754833827195	0.2666554922019744	0.05894536117673663	0.4924682252495926	0.2325797164659618	0.8689916005439161	-3.092344294921507	0.2656124144528792	-0.8688228271902152	0.3637245057017903	-3.134488099741001	-3.13448809974107	-0.5285566329697549	0.1299968081082278	-0.84174046973536	-0.1931229502541147	-0.1360908520888886	0.01500155042579494	-0.01269500822515617	-0.2532565574781807	0.03778143631554227	0.0373579174535509	0.142915857812107	-16.67707567526654	-15.08918110836774	4.108236326693482	-13.56915863173891	-481.8885842722923	-59.59165765987653	-13.58466227574328	1.250468961459544	1.130444808328639	-1.413168011305577	-0.8251717514689246	0.8225970366392472	-0.1012253830681293	1.965744153908235	-1.335141609763935	-1.335141609763702	0.3716781757685579	0.7493202977492901	-1.383636840497885	0.3392999477868815	9.016107618700744e-07	4.473325248812286e-06	-5.91316937853092e-07	8.641097431144065e-07	8.709259184418356e-07	1.470649928430877e-06	7.309701106100186e-07
